<svg width="562" height="382" viewBox="0 0 562 382" fill="none" xmlns="http://www.w3.org/2000/svg">
<path d="M134.947 347.273H113.288C112.523 310.716 110.413 276.347 106.965 244.142H106.772L73.7972 347.273H57.3076L24.5293 244.142H24.341C21.9094 275.062 20.3776 309.439 19.7415 347.273H0C1.27229 301.266 4.46977 258.133 9.57986 217.872H36.4236L67.6659 312.955H67.8584L99.2932 217.872H124.978C130.603 265.03 133.926 308.167 134.947 347.273ZM228.875 251.801C220.056 299.654 208.422 334.425 193.983 356.129C182.733 372.836 170.408 381.198 156.986 381.198C153.408 381.198 148.992 380.118 143.761 377.976V366.437C146.318 366.805 149.319 367.015 152.767 367.015C159.037 367.015 164.076 365.29 167.918 361.833C172.513 357.623 174.81 352.89 174.81 347.654C174.81 344.063 173.019 336.722 169.445 325.607L145.677 251.797H166.955L184.014 306.999C187.847 319.534 189.446 328.285 188.806 333.27C198.134 308.355 204.651 281.189 208.363 251.793H228.875V251.801Z" fill="#5D87A1"/>
<path d="M517.17 347.273H455.648V217.872H476.344V331.344H517.17V347.273ZM439.543 350.4L415.755 338.66C417.864 336.927 419.882 335.052 421.698 332.88C431.809 321.003 436.852 303.438 436.852 280.172C436.852 237.362 420.053 215.947 386.442 215.947C369.961 215.947 357.104 221.379 347.909 232.248C337.806 244.134 332.763 261.636 332.763 284.776C332.763 307.522 337.233 324.209 346.176 334.793C354.358 344.381 366.692 349.182 383.186 349.182C389.338 349.182 394.984 348.428 400.128 346.909L431.098 364.939L439.543 350.4ZM362.482 321.38C357.242 312.951 354.622 299.416 354.622 280.754C354.622 248.172 364.52 231.863 384.337 231.863C394.695 231.863 402.287 235.763 407.142 243.548C412.373 251.989 415.006 265.403 415.006 283.805C415.006 316.654 405.099 333.081 385.295 333.081C374.933 333.085 367.341 329.197 362.482 321.38ZM323.744 311.406C323.744 322.38 319.718 331.382 311.674 338.434C303.622 345.457 292.824 348.977 279.293 348.977C266.637 348.977 254.366 344.934 242.489 336.89L248.051 325.778C258.271 330.897 267.524 333.441 275.832 333.441C283.629 333.441 289.723 331.713 294.142 328.285C298.558 324.845 301.19 320.019 301.19 313.917C301.19 306.229 295.829 299.658 285.994 294.155C276.924 289.175 258.786 278.762 258.786 278.762C248.955 271.597 244.033 263.905 244.033 251.232C244.033 240.744 247.703 232.277 255.048 225.836C262.402 219.37 271.89 216.148 283.52 216.148C295.532 216.148 306.451 219.366 316.286 225.736L311.297 236.852C302.885 233.277 294.582 231.49 286.391 231.49C279.758 231.49 274.635 233.085 271.074 236.287C267.483 239.476 265.269 243.556 265.269 248.562C265.269 256.212 270.743 262.867 280.846 268.479C290.037 273.468 308.627 284.06 308.627 284.06C318.709 291.213 323.744 298.834 323.744 311.406Z" fill="#F8981D"/>
<path d="M543.152 174.53C530.638 174.212 520.95 175.472 512.818 178.912C510.47 179.85 506.737 179.85 506.41 182.817C507.679 184.072 507.825 186.098 508.926 187.831C510.801 190.957 514.069 195.163 517.053 197.356C520.33 199.867 523.62 202.353 527.068 204.542C533.15 208.305 540.043 210.493 545.969 214.243C549.421 216.424 552.853 219.245 556.31 221.592C558.009 222.844 559.098 224.874 561.303 225.656V225.179C560.198 223.773 559.884 221.739 558.8 220.174L554.105 215.645C549.568 209.552 543.931 204.232 537.849 199.863C532.844 196.414 521.896 191.727 519.866 185.96L519.548 185.642C522.988 185.32 527.068 184.072 530.337 183.114C535.656 181.712 540.507 182.03 545.965 180.628C548.476 180 550.966 179.213 553.485 178.439V177.029C550.656 174.212 548.639 170.471 545.663 167.809C537.703 160.933 528.931 154.207 519.866 148.578C515.011 145.443 508.767 143.426 503.598 140.76C501.736 139.818 498.597 139.354 497.5 137.789C494.696 134.348 493.118 129.82 491.084 125.748C486.564 117.156 482.174 107.622 478.274 98.5358C475.453 92.4422 473.737 86.357 470.297 80.7195C454.184 54.1437 436.685 38.0475 409.792 22.2485C404.012 18.9589 397.136 17.5569 389.791 15.8326L378.06 15.2132C375.557 14.1167 373.05 11.141 370.865 9.73482C361.942 4.10995 338.97 -8.08146 332.408 8.01472C328.181 18.1889 338.66 28.1914 342.26 33.3518C344.917 36.9343 348.362 41.0106 350.22 45.0786C351.32 47.7362 351.63 50.557 352.731 53.3652C355.234 60.2457 357.573 67.9003 360.863 74.3204C362.579 77.5932 364.449 81.0334 366.642 83.9965C367.898 85.7292 370.083 86.4951 370.56 89.3201C368.379 92.4338 368.208 97.1338 366.956 101.043C361.331 118.708 363.529 140.593 371.501 153.575C373.996 157.484 379.947 166.089 387.907 162.791C394.955 159.978 393.394 151.068 395.42 143.254C395.884 141.367 395.579 140.128 396.516 138.889V139.195C398.697 143.568 400.898 147.783 402.92 152.169C407.77 159.823 416.216 167.8 423.251 173.103C426.997 175.932 429.964 180.77 434.656 182.499V182.03H434.346C433.396 180.628 432.006 180 430.759 178.912C427.938 176.095 424.816 172.655 422.627 169.533C416.074 160.774 410.273 151.077 405.125 141.07C402.606 136.215 400.434 130.908 398.404 126.062C397.458 124.191 397.458 121.37 395.888 120.428C393.536 123.864 390.109 126.84 388.393 131.05C385.417 137.784 385.107 146.067 384.003 154.68L383.387 154.981C378.407 153.73 376.674 148.578 374.783 144.204C370.099 133.097 369.313 115.268 373.376 102.453C374.465 99.1761 379.173 88.8555 377.294 85.7334C376.352 82.741 373.222 81.0376 371.506 78.6814C369.488 75.7183 367.279 71.9683 365.872 68.6788C362.122 59.9276 360.235 50.2306 356.196 41.4836C354.309 37.4072 351.032 33.1885 348.378 29.4344C345.398 25.2158 342.121 22.2443 339.765 17.243C338.987 15.5229 337.894 12.7105 339.146 10.8397C339.451 9.58415 340.087 9.11542 341.335 8.80153C343.36 7.08979 349.148 9.26608 351.178 10.2077C356.975 12.5514 361.821 14.7403 366.659 18.0215C368.848 19.5909 371.196 22.5624 374.004 23.345H377.294C382.287 24.4331 387.916 23.6463 392.616 25.0609C400.898 27.7227 408.402 31.6275 415.132 35.8419C435.61 48.8285 452.497 67.281 463.897 89.3201C465.768 92.911 466.563 96.2005 468.271 99.9462C471.565 107.613 475.637 115.431 478.905 122.935C482.191 130.28 485.321 137.78 490.013 143.882C492.352 147.163 501.752 148.883 505.967 150.604C509.085 152.006 513.94 153.253 516.752 154.973C522.071 158.25 527.37 162.012 532.371 165.616C534.861 167.491 542.688 171.4 543.152 174.53ZM383.672 38.6627C381.513 38.6403 379.362 38.9049 377.273 39.4496V39.7634H377.574C378.834 42.262 381.023 43.9947 382.584 46.1751C383.843 48.682 384.936 51.168 386.17 53.6708L386.472 53.3611C388.677 51.8 389.774 49.2973 389.774 45.5432C388.824 44.4383 388.677 43.3585 387.886 42.262C386.966 40.6967 384.936 39.9183 383.672 38.6627Z" fill="#5D87A1"/>
</svg>
