<svg width="401" height="459" viewBox="0 0 401 459" fill="none" xmlns="http://www.w3.org/2000/svg">
<g clip-path="url(#clip0_62_49)">
<path d="M204 1C209.167 22.3333 231.9 80.2 267.5 111C312 149.5 382 178 394.5 235.5C407 293 389.5 316.5 368 337C346.5 357.5 277.5 370 234 311C244.667 353.667 285.2 442.7 362 457.5L154.5 456.209L170 434H264C269 434 200 359.471 215.5 239C222.667 256.333 244.8 293.9 276 305.5C315 320 357.5 286 334 235.5C310.5 185 267.5 170 245.5 140.5C223.5 111 210.668 72.6231 207.5 59.5C204 45 200.5 37 204 1Z" fill="white"/>
<path d="M191.769 1C186.641 22.3333 167.549 80.2 132.212 111C88.0407 149.5 18.5574 178 6.14967 235.5C-6.25806 293 11.1127 316.5 32.4541 337C53.7954 357.5 122.286 370 165.465 311C154.877 353.667 114.643 442.7 38.4098 457.5L120 456.209L135.686 434C138.5 429.5 199.214 359.471 183.828 239C176.715 256.333 154.745 293.9 123.775 305.5C85.0629 320 42.8766 286 66.2031 235.5C89.5296 185 132.212 170 154.05 140.5C175.887 111 190.053 72.8904 191.769 59.5C193.5 46 195.244 37 191.769 1Z" fill="white"/>
<path d="M368 337C346.5 357.5 277.5 370 234 311C244.667 353.667 285.2 442.7 362 457.5L154.5 456.209L170 434H264C269 434 200 359.471 215.5 239C222.667 256.333 244.8 293.9 276 305.5C315 320 357.5 286 334 235.5C310.5 185 267.5 170 245.5 140.5C223.5 111 210.668 72.6231 207.5 59.5C204 45 200.5 37 204 1C209.167 22.3333 231.9 80.2 267.5 111C312 149.5 382 178 394.5 235.5C407 293 389.5 316.5 368 337Z" fill="white"/>
<path d="M165.465 311C122.286 370 53.7954 357.5 32.4541 337C11.1127 316.5 -6.25806 293 6.14967 235.5C18.5574 178 88.0407 149.5 132.212 111C167.549 80.2 186.641 22.3333 191.769 1C195.244 37 193.5 46 191.769 59.5C190.053 72.8904 175.887 111 154.05 140.5C132.212 170 89.5296 185 66.2031 235.5C42.8766 286 85.0629 320 123.775 305.5C154.745 293.9 176.715 256.333 183.828 239C199.214 359.471 138.5 429.5 135.686 434L120 456.209L38.4098 457.5C114.643 442.7 154.877 353.667 165.465 311Z" fill="white"/>
<path d="M215.5 239C200 359.471 269 434 264 434H170L154.5 456.209L362 457.5C285.2 442.7 244.667 353.667 234 311C277.5 370 346.5 357.5 368 337C389.5 316.5 407 293 394.5 235.5C382 178 312 149.5 267.5 111C231.9 80.2 209.167 22.3333 204 1C200.5 37 204 45 207.5 59.5C210.668 72.6231 223.5 111 245.5 140.5C267.5 170 310.5 185 334 235.5C357.5 286 315 320 276 305.5C244.8 293.9 222.667 256.333 215.5 239ZM234 311L215.5 239M183.828 239C199.214 359.471 138.5 429.5 135.686 434L120 456.209L38.4098 457.5C114.643 442.7 154.877 353.667 165.465 311C122.286 370 53.7954 357.5 32.4541 337C11.1127 316.5 -6.25806 293 6.14967 235.5C18.5574 178 88.0407 149.5 132.212 111C167.549 80.2 186.641 22.3333 191.769 1C195.244 37 193.5 46 191.769 59.5C190.053 72.8904 175.887 111 154.05 140.5C132.212 170 89.5296 185 66.2031 235.5C42.8766 286 85.0629 320 123.775 305.5C154.745 293.9 176.715 256.333 183.828 239ZM165.465 311L183.828 239" stroke="white" stroke-width="3"/>
</g>
<defs>
<clipPath id="clip0_62_49">
<rect width="401" height="459" fill="white"/>
</clipPath>
</defs>
</svg>
